# xmcd CD database file
#
# Track frame offsets:
#	150
#	12745
#	31913
#	55879
#	70509
#	91470
#	109572
#	129034
#	144307
#	163175
#	187350
#	197040
#	210697
#	236305
#	241336
#	255867
#
# Disc length: 3637 seconds
#
# Revision: 5
# Processed by: cddbd v1.5.2PL0 Copyright (c) Steve Scherf et al.
# Submitted via: CDex 1.70beta3
#
DISCID=d50e3310
DTITLE=The Yardbirds - Sonny Boy Wlliamson and The Yardbirds
DYEAR=1965
DGENRE=Rock
TTITLE0=Bye Bye Bird
TTITLE1=Mister Downchild
TTITLE2=23 Hours Too Long
TTITLE3=Out Of The Water Coast
TTITLE4=Baby Don't Worry
TTITLE5=Pontiac Blues
TTITLE6=Take It Easy Baby (version one)
TTITLE7=I Don't Care No More
TTITLE8=Do The Weston
TTITLE9=The River Rhine (bonus track)
TTITLE10=A Lost Care (bonus track)
TTITLE11=Western Arizona (bonus track)
TTITLE12=Take It Easy Baby (version two)
TTITLE13=Slow Walk (bonus track)
TTITLE14=Highway 69 (bonus track)
TTITLE15=Hey Little Cabin (bonus track)
EXTD=YEAR: 1965
EXTT0=
EXTT1=
EXTT2=
EXTT3=
EXTT4=
EXTT5=
EXTT6=
EXTT7=
EXTT8=
EXTT9=
EXTT10=
EXTT11=
EXTT12=
EXTT13=
EXTT14=
EXTT15=
PLAYORDER=
